<svg width="32" height="32" viewBox="0 0 32 32" fill="none" xmlns="http://www.w3.org/2000/svg">
<rect width="32" height="32" rx="10" fill="black"/>
<path d="M24.3029 27.6323H23.835C23.835 27.6273 23.8327 27.6223 23.8317 27.6177L23.819 27.5604C23.8107 27.5228 23.8019 27.4855 23.7927 27.4484C23.7888 27.431 23.7845 27.4136 23.7802 27.3962C23.7681 27.3473 23.7553 27.2985 23.7422 27.2497L23.7382 27.2357C23.7238 27.1828 23.7087 27.1301 23.693 27.0776L23.6772 27.0269C23.6664 26.9908 23.6549 26.9551 23.6444 26.9193C23.6382 26.8997 23.6316 26.8804 23.6254 26.8611C23.6139 26.8266 23.6021 26.7921 23.5899 26.7578C23.5837 26.7398 23.5771 26.7215 23.5709 26.7037C23.5556 26.6608 23.5398 26.6182 23.5236 26.5759C23.52 26.5668 23.5171 26.5581 23.5135 26.5491C23.4944 26.4993 23.4744 26.4499 23.4541 26.4004C23.4469 26.3824 23.4393 26.3646 23.4318 26.3469C23.418 26.3158 23.4042 26.2816 23.3901 26.2492L23.3635 26.1892C23.3497 26.1581 23.3356 26.127 23.3212 26.0959C23.3123 26.0766 23.3031 26.057 23.294 26.0377C23.2772 26.0019 23.2611 25.9665 23.2424 25.9313C23.2356 25.9179 23.2293 25.9042 23.2224 25.8906C23.1991 25.8442 23.1752 25.7972 23.1509 25.7524L23.1181 25.6943L23.0718 25.61L23.0357 25.5478C23.0206 25.5216 23.0055 25.4955 22.9901 25.4694C22.978 25.4482 22.9655 25.4271 22.953 25.4071C22.936 25.3788 22.9202 25.3512 22.9015 25.3232L22.8543 25.2472C22.832 25.2124 22.8096 25.1773 22.7867 25.1427C22.7722 25.121 22.7578 25.0995 22.743 25.078C22.7283 25.0566 22.7122 25.032 22.6964 25.0093C22.6807 24.9866 22.6636 24.9639 22.6492 24.9415C22.6348 24.9191 22.619 24.8988 22.6036 24.8792C22.5882 24.8596 22.5708 24.8335 22.554 24.8108L22.5078 24.7486C22.475 24.7072 22.4448 24.6658 22.4126 24.6242L22.3677 24.5672C22.3486 24.5433 22.3289 24.5196 22.3096 24.496L22.2663 24.4437C22.2463 24.4198 22.2259 24.3961 22.2056 24.3722L22.1629 24.323L22.0993 24.2509L22.0615 24.2092C21.9831 24.123 21.9027 24.0381 21.8204 23.9553L21.7843 23.9189L21.7088 23.8452L21.6717 23.8098C21.6455 23.7846 21.6192 23.7597 21.5926 23.7351L21.5654 23.7102C21.4725 23.6247 21.3771 23.5413 21.2799 23.4613L21.2534 23.4393C21.2234 23.4144 21.1932 23.3898 21.1628 23.3655L21.1326 23.3413C21.0998 23.3164 21.0699 23.2918 21.0381 23.2672L21.022 23.2551C20.9147 23.173 20.8048 23.093 20.6939 23.0162L20.6785 23.0053C20.6434 22.9814 20.6083 22.9577 20.5728 22.9344L20.5495 22.9191C20.5134 22.8952 20.477 22.8719 20.4406 22.8485L20.4344 22.8448C20.3136 22.7683 20.1906 22.695 20.0652 22.6249L20.0603 22.6217C20.0206 22.5997 19.9809 22.5782 19.9412 22.5567L19.9238 22.5474C19.7125 22.4344 19.4955 22.3307 19.2728 22.2363L19.259 22.2304C19.2003 22.2055 19.1412 22.1816 19.0815 22.1579H20.2559C20.4472 22.1579 20.6024 21.9492 20.6024 21.6913C20.6024 21.4334 20.4472 21.2247 20.2559 21.2247H19.9061C19.9277 21.1724 19.9517 21.1133 19.9776 21.0468C20.3084 20.8514 20.8905 20.4352 21.468 19.6705L21.4725 19.6646C21.5163 19.6074 21.5593 19.5482 21.6015 19.487L21.61 19.4749C21.652 19.4148 21.694 19.3529 21.7354 19.2882L21.7465 19.2711C21.7662 19.24 21.7859 19.2089 21.8056 19.1778C21.8056 19.1778 21.8056 19.1753 21.8079 19.1737C21.8282 19.1426 21.8482 19.1084 21.8683 19.0751L21.8811 19.0537C21.8981 19.0251 21.9155 18.9958 21.9322 18.9663C21.9355 18.961 21.9388 18.9557 21.9418 18.9501C21.9611 18.9165 21.9805 18.8823 21.9995 18.8477L22.0126 18.8238C22.0284 18.7952 22.0438 18.7662 22.0592 18.737C22.0638 18.7289 22.0684 18.7205 22.0727 18.7121C22.0911 18.677 22.1094 18.6415 22.1278 18.6054L22.1406 18.5802C22.155 18.551 22.1698 18.5211 22.1842 18.4912L22.2 18.4601C22.2177 18.4234 22.2351 18.3861 22.2525 18.3485L22.2633 18.3245C22.2778 18.2934 22.2919 18.2623 22.306 18.2312L22.3227 18.1939C22.3391 18.1562 22.3555 18.1183 22.3713 18.08C22.3742 18.0732 22.3772 18.066 22.3798 18.0592C22.3946 18.024 22.409 17.9882 22.4234 17.9521L22.4399 17.9111C22.4533 17.8769 22.4668 17.8423 22.4799 17.8078L22.4897 17.7817C22.5051 17.7406 22.5202 17.6986 22.5353 17.6572L22.5511 17.6131C22.5629 17.5801 22.5744 17.5465 22.5859 17.5129C22.5901 17.5005 22.5944 17.488 22.5983 17.4756C22.6128 17.4326 22.6272 17.3888 22.6413 17.3449C22.6459 17.3297 22.6508 17.3138 22.6554 17.2995L22.6882 17.1972C22.6925 17.1822 22.6971 17.166 22.7014 17.1527C22.7148 17.1076 22.7283 17.0615 22.7411 17.0152C22.7453 17.0006 22.7493 16.9856 22.7532 16.9707C22.7631 16.9349 22.7729 16.8991 22.7824 16.8627C22.7867 16.8463 22.7909 16.8298 22.7955 16.8133C22.8077 16.7654 22.8198 16.7172 22.8316 16.6683L22.8415 16.6276C22.8507 16.5887 22.8598 16.5495 22.8687 16.51L22.8805 16.4571C22.8917 16.4064 22.9028 16.3557 22.9133 16.304C22.9156 16.2941 22.9176 16.2838 22.9196 16.2729C22.9288 16.2285 22.9376 16.1834 22.9461 16.1382C22.9498 16.1199 22.953 16.1015 22.9566 16.0832C22.9652 16.0368 22.9734 15.9899 22.9816 15.9435C22.9832 15.9336 22.9852 15.9239 22.9868 15.9143C22.996 15.8595 23.005 15.8044 23.0137 15.7488C23.0167 15.7301 23.0196 15.7114 23.0223 15.6925C23.0292 15.6474 23.0357 15.6019 23.0423 15.5559L23.0482 15.5136C23.0561 15.4564 23.0636 15.3988 23.0708 15.3403C23.0731 15.322 23.0751 15.3036 23.0774 15.285C23.0831 15.2385 23.0883 15.1918 23.0931 15.145C23.0951 15.1282 23.0971 15.1117 23.0987 15.0949C23.1051 15.0347 23.111 14.9741 23.1164 14.9129C23.1164 14.8958 23.1194 14.8787 23.1207 14.8613C23.125 14.8121 23.1292 14.7627 23.1328 14.7129C23.1328 14.6945 23.1358 14.6762 23.1371 14.6578C23.1417 14.5944 23.146 14.5305 23.1499 14.4662C23.1499 14.4516 23.1499 14.4351 23.1522 14.422C23.1552 14.3685 23.1581 14.3147 23.1604 14.2606C23.1604 14.241 23.1604 14.2214 23.163 14.2018C23.1657 14.1349 23.1683 14.0677 23.1703 13.9996C23.1703 13.9902 23.1703 13.9806 23.1703 13.971C23.172 13.9104 23.1733 13.8492 23.1742 13.7874C23.1742 13.7672 23.1742 13.747 23.1742 13.7268C23.1742 13.6604 23.1742 13.5936 23.1742 13.5264V13.5109C23.1742 13.4393 23.1742 13.3668 23.1742 13.2931V13.2309C23.1742 13.1687 23.1716 13.1034 23.1699 13.0387V13.0035C23.1676 12.9288 23.1647 12.8533 23.1617 12.7773C23.1617 12.7578 23.1598 12.7378 23.1591 12.7182C23.1563 12.6544 23.153 12.5901 23.1493 12.5254C23.1493 12.5095 23.1493 12.4943 23.1466 12.4772C23.142 12.3994 23.137 12.321 23.1315 12.242L23.1276 12.1869C23.1227 12.121 23.1178 12.0547 23.1122 11.9878C23.1122 11.9685 23.1092 11.9493 23.1076 11.93C23.1007 11.8491 23.0931 11.7673 23.0853 11.6852C23.0853 11.6696 23.082 11.654 23.0807 11.6382C23.0738 11.5682 23.0662 11.4976 23.0587 11.4263C23.0564 11.4049 23.0541 11.3837 23.0515 11.3623C23.0423 11.2776 23.0324 11.1927 23.0219 11.1065C23.0219 11.096 23.019 11.0854 23.0177 11.0754C23.0083 10.9983 22.9983 10.9207 22.9878 10.8428C22.9845 10.8197 22.9816 10.7967 22.9783 10.7737C22.9661 10.6853 22.9535 10.5963 22.9406 10.5065C21.6281 1.64882 12.3271 3.08631 12.3271 3.08631L12.625 4.9895L7 10.6231L7.24576 12.7985L9.3766 14.0428C9.47159 13.8139 9.59355 13.5959 9.74016 13.393C11.115 11.8895 13.7823 10.7093 14.5459 10.4645C14.6988 10.4156 14.7857 10.3911 14.7857 10.3911C11.1334 14.8725 11.5488 20.0065 11.7115 21.2303C11.5422 21.2614 11.4113 21.4552 11.4113 21.6916C11.4113 21.9492 11.5665 22.1582 11.7578 22.1582H12.9321C10.979 22.9333 9.4287 24.4095 8.61962 26.2645C8.61866 26.267 8.61757 26.2695 8.61634 26.2719C8.55662 26.4096 8.50106 26.5493 8.44965 26.691C8.44974 26.6924 8.44974 26.6939 8.44965 26.6953C8.43587 26.7339 8.42242 26.7725 8.40929 26.8114C8.40437 26.8254 8.39945 26.8394 8.39485 26.8537C8.38304 26.8885 8.3721 26.9237 8.36204 26.9591C8.35613 26.9772 8.35056 26.9955 8.34498 27.0136C8.33448 27.0468 8.32431 27.0804 8.31446 27.114L8.29674 27.1762C8.28756 27.2074 8.27837 27.2406 8.26984 27.273C8.26361 27.296 8.2577 27.3187 8.25179 27.3417C8.24392 27.3729 8.23571 27.404 8.22817 27.4351C8.22062 27.4662 8.2134 27.4973 8.20618 27.5303C8.19896 27.5632 8.18978 27.6018 8.1819 27.6379H7.71367C7.62363 27.636 7.5341 27.6512 7.45034 27.6826C7.36657 27.7139 7.29026 27.7608 7.22588 27.8206C7.1615 27.8803 7.11034 27.9516 7.07542 28.0303C7.0405 28.109 7.02251 28.1935 7.02251 28.2789C7.02251 28.3643 7.0405 28.4488 7.07542 28.5275C7.11034 28.6062 7.1615 28.6775 7.22588 28.7372C7.29026 28.7969 7.36657 28.8438 7.45034 28.8752C7.5341 28.9065 7.62363 28.9217 7.71367 28.9198H24.3088C24.3989 28.9217 24.4884 28.9065 24.5722 28.8752C24.6559 28.8438 24.7323 28.7969 24.7966 28.7372C24.861 28.6775 24.9122 28.6062 24.9471 28.5275C24.982 28.4488 25 28.3643 25 28.2789C25 28.1935 24.982 28.109 24.9471 28.0303C24.9122 27.9516 24.861 27.8803 24.7966 27.8206C24.7323 27.7608 24.6559 27.7139 24.5722 27.6826C24.4884 27.6512 24.3989 27.636 24.3088 27.6379L24.3029 27.6323Z" fill="#FF7805"/>
</svg>
